<svg width="32" height="37" viewBox="0 0 32 37" fill="none" xmlns="http://www.w3.org/2000/svg">
<path d="M12.8473 13C11.815 13 11 13.9056 11 15.0103C11 16.1151 11.8331 17.0207 12.8473 17.0207C13.8797 17.0207 14.6947 16.1151 14.6947 15.0103C14.7128 13.9056 13.8797 13 12.8473 13ZM19.4579 13C18.4256 13 17.6106 13.9056 17.6106 15.0103C17.6106 16.1151 18.4437 17.0207 19.4579 17.0207C20.4902 17.0207 21.3052 16.1151 21.3052 15.0103C21.3052 13.9056 20.4902 13 19.4579 13Z" fill="white"/>
<path d="M27.9817 0H3.71278C1.66622 0 0 1.66622 0 3.73089V28.2171C0 30.2818 1.66622 31.948 3.71278 31.948H24.2508L23.2909 28.5974L25.6091 30.7527L27.8006 32.7811L31.6944 36.2222V3.73089C31.6944 1.66622 30.0282 0 27.9817 0ZM20.9908 23.6531C20.9908 23.6531 20.3388 22.8743 19.7954 22.1861C22.168 21.516 23.0736 20.0309 23.0736 20.0309C22.331 20.5199 21.6247 20.864 20.9908 21.0994C20.0852 21.4798 19.2159 21.7333 18.3647 21.8782C16.626 22.2042 15.0322 22.1137 13.6739 21.8601C12.6416 21.6609 11.7541 21.3711 11.0116 21.0813C10.595 20.9183 10.1422 20.7191 9.68945 20.4656C9.63511 20.4293 9.58078 20.4112 9.52645 20.375C9.49022 20.3569 9.47211 20.3388 9.454 20.3207C9.128 20.1396 8.94689 20.0128 8.94689 20.0128C8.94689 20.0128 9.81622 21.4617 12.1163 22.1499C11.573 22.8381 10.9029 23.6531 10.9029 23.6531C6.90033 23.5263 5.379 20.9002 5.379 20.9002C5.379 15.0684 7.987 10.3414 7.987 10.3414C10.595 8.38545 13.0762 8.43978 13.0762 8.43978L13.2573 8.65711C9.99733 9.59889 8.49411 11.0297 8.49411 11.0297C8.49411 11.0297 8.89256 10.8123 9.56267 10.5044C11.5006 9.65322 13.04 9.41778 13.6739 9.36345C13.7826 9.34534 13.8731 9.32722 13.9818 9.32722C15.0866 9.18233 16.3362 9.14611 17.6402 9.291C19.3608 9.49022 21.2081 9.99734 23.0917 11.0297C23.0917 11.0297 21.6609 9.67134 18.582 8.72956L18.8356 8.43978C18.8356 8.43978 21.3168 8.38545 23.9248 10.3414C23.9248 10.3414 26.5328 15.0684 26.5328 20.9002C26.5328 20.9002 24.9933 23.5263 20.9908 23.6531Z" fill="white"/>
</svg>
