<svg width="32" height="32" viewBox="0 0 32 32" fill="none" xmlns="http://www.w3.org/2000/svg">
<path d="M16 0C11.6547 0 11.1098 0.0184344 9.40321 0.0962685C7.70019 0.17396 6.53711 0.444474 5.51936 0.839932C4.46722 1.24882 3.57494 1.79595 2.68547 2.68542C1.79595 3.57489 1.24882 4.46727 0.839979 5.51941C0.444426 6.53711 0.174007 7.70019 0.0962208 9.40321C0.0183868 11.1098 0 11.6547 0 16C0 20.3453 0.0183868 20.8902 0.0962208 22.5968C0.174007 24.2998 0.444426 25.4629 0.839979 26.4806C1.24887 27.5327 1.796 28.425 2.68547 29.3146C3.57499 30.2041 4.46722 30.7512 5.51936 31.1601C6.53711 31.5555 7.70019 31.826 9.40321 31.9037C11.1098 31.9816 11.6547 32 16 32C20.3453 32 20.8902 31.9816 22.5968 31.9037C24.2998 31.826 25.4629 31.5555 26.4806 31.1601C27.5327 30.7512 28.425 30.2041 29.3146 29.3146C30.2041 28.425 30.7512 27.5327 31.1601 26.4806C31.5555 25.4629 31.826 24.2998 31.9037 22.5968C31.9816 20.8902 32 20.3453 32 16C32 11.6547 31.9816 11.1098 31.9037 9.40321C31.826 7.70019 31.5555 6.53711 31.1601 5.51941C30.7512 4.46727 30.2041 3.57489 29.3146 2.68542C28.425 1.79595 27.5327 1.24882 26.4806 0.839932C25.4629 0.444474 24.2998 0.17396 22.5968 0.0962685C20.8902 0.0184344 20.3453 0 16 0ZM16 2.88286C20.2722 2.88286 20.7782 2.8992 22.4654 2.97618C24.0254 3.04729 24.8726 3.30795 25.4363 3.52707C26.1832 3.81735 26.7162 4.16403 27.276 4.72392C27.836 5.28381 28.1827 5.81684 28.4729 6.56364C28.6921 7.12744 28.9527 7.97466 29.0238 9.53463C29.1008 11.2218 29.1171 11.7278 29.1171 16C29.1171 20.2722 29.1008 20.7782 29.0238 22.4654C28.9527 24.0254 28.6921 24.8726 28.4729 25.4363C28.1827 26.1832 27.836 26.7162 27.276 27.276C26.7162 27.836 26.1832 28.1827 25.4364 28.4729C24.8726 28.6921 24.0253 28.9527 22.4654 29.0238C20.7785 29.1008 20.2725 29.1171 16 29.1171C11.7275 29.1171 11.2216 29.1008 9.53463 29.0238C7.97461 28.9527 7.12744 28.6921 6.56369 28.4729C5.81679 28.1827 5.28381 27.836 4.72397 27.276C4.16408 26.7162 3.81735 26.1832 3.52707 25.4364C3.30795 24.8726 3.04734 24.0253 2.97618 22.4654C2.8992 20.7782 2.88286 20.2722 2.88286 16C2.88286 11.7278 2.8992 11.2218 2.97618 9.53463C3.04734 7.97461 3.30795 7.12744 3.52707 6.56369C3.81735 5.81679 4.16408 5.28381 4.72392 4.72397C5.28381 4.16403 5.81684 3.81735 6.56364 3.52707C7.12744 3.30795 7.97466 3.04729 9.53463 2.97618C11.2218 2.8992 11.7278 2.88286 16 2.88286" fill="white"/>
<path d="M16 21.3333C13.0544 21.3333 10.6666 18.9455 10.6666 16C10.6666 13.0544 13.0544 10.6666 16 10.6666C18.9455 10.6666 21.3333 13.0544 21.3333 16C21.3333 18.9455 18.9455 21.3333 16 21.3333ZM16 7.78372C11.4623 7.78372 7.78378 11.4622 7.78378 16C7.78378 20.5377 11.4623 24.2161 16 24.2161C20.5377 24.2161 24.2162 20.5377 24.2162 16C24.2162 11.4622 20.5377 7.78372 16 7.78372M26.4609 7.4591C26.4609 8.51953 25.6012 9.37908 24.5408 9.37908C23.4805 9.37908 22.6208 8.51953 22.6208 7.4591C22.6208 6.39871 23.4805 5.53906 24.5408 5.53906C25.6012 5.53906 26.4609 6.39871 26.4609 7.4591" fill="white"/>
</svg>
