<svg width="32" height="32" viewBox="0 0 32 32" fill="none" xmlns="http://www.w3.org/2000/svg">
<path d="M27.0749 27.0746H22.3666V19.7013C22.3666 17.943 22.3352 15.6796 19.9179 15.6796C17.4656 15.6796 17.0905 17.5953 17.0905 19.5733V27.0741H12.3822V11.9116H16.9021V13.9837H16.9654C17.4177 13.2103 18.0714 12.5741 18.8567 12.1427C19.642 11.7114 20.5296 11.5012 21.425 11.5344C26.197 11.5344 27.0768 14.6733 27.0768 18.7567L27.0749 27.0746ZM7.06973 9.83897C6.52934 9.83907 6.00106 9.67892 5.55169 9.37877C5.10232 9.07863 4.75204 8.65197 4.54515 8.15276C4.33826 7.65354 4.28406 7.10418 4.38939 6.57416C4.49472 6.04413 4.75485 5.55725 5.1369 5.17506C5.51894 4.79288 6.00573 4.53257 6.53572 4.42705C7.06571 4.32153 7.61508 4.37554 8.11437 4.58225C8.61367 4.78896 9.04045 5.13908 9.34075 5.58835C9.64106 6.03761 9.8014 6.56583 9.80149 7.10622C9.80156 7.46503 9.73095 7.82033 9.5937 8.15185C9.45645 8.48337 9.25525 8.78461 9.00158 9.03836C8.74791 9.29212 8.44675 9.49343 8.11528 9.6308C7.78381 9.76817 7.42853 9.8389 7.06973 9.83897ZM9.42385 27.0746H4.7107V11.9116H9.42385V27.0746ZM29.4221 0.0021641H2.34481C1.73023 -0.00477142 1.13804 0.232571 0.698361 0.662038C0.258686 1.0915 0.0075006 1.67796 0 2.29253V29.4822C0.00724388 30.097 0.258269 30.6839 0.697928 31.1138C1.13759 31.5437 1.72992 31.7815 2.34481 31.775H29.4221C30.0382 31.7827 30.6322 31.5456 31.0736 31.1157C31.515 30.6858 31.7677 30.0983 31.7763 29.4822V2.29057C31.7675 1.67478 31.5146 1.08766 31.0732 0.658202C30.6318 0.228746 30.0379 -0.00791921 29.4221 0.000202331" fill="white"/>
</svg>
